<?xml version="1.0" encoding="utf-8"?>
<!-- Generator: Adobe Illustrator 24.1.3, SVG Export Plug-In . SVG Version: 6.00 Build 0)  -->
<svg version="1.1" id="Capa_1" xmlns="http://www.w3.org/2000/svg" xmlns:xlink="http://www.w3.org/1999/xlink" x="0px" y="0px"
	 viewBox="0 0 532.2 224.4" style="enable-background:new 0 0 532.2 224.4;" xml:space="preserve">
<style type="text/css">
	.st0{fill:#888B8D;}
	.st1{fill:#C40D3C;}
	.st2{fill-rule:evenodd;clip-rule:evenodd;fill:#C40D3C;}
</style>
<g>
	<g>
		<polygon class="st0" points="60.7,170 53.5,150.3 53.4,150 46.9,150 46.9,177.8 51.7,177.8 51.7,159.4 58.3,177.6 58.4,177.8 
			63,177.8 69.7,159.5 69.7,177.8 74.5,177.8 74.5,150 67.9,150 		"/>
		<path class="st0" d="M92.1,150h-4.6l-9.9,27.3l-0.2,0.5h5.1l2.2-5.9h10.2l2.2,5.9h5.1l-10-27.5L92.1,150z M93.1,167.1h-6.7
			l3.3-9.2L93.1,167.1z"/>
		<path class="st0" d="M121.5,166c-0.2-0.2-0.3-0.4-0.5-0.5c1.1-0.5,2.2-1.3,3.1-2.3c1.2-1.5,1.9-3.2,1.9-5c0-2.3-0.9-4.3-2.8-6
			c-1.8-1.4-3.8-2.2-6.2-2.2H105v27.8h4.8v-11.5h3.2c2,0,3.4,0.6,4.2,2l6.2,9.5h5.8l-6.8-10.4C122.1,166.9,121.8,166.4,121.5,166z
			 M109.9,154.9h7.1c1.1,0,2,0.3,2.9,0.9c0.8,0.6,1.2,1.4,1.2,2.4c0,1-0.4,1.8-1.2,2.4c-0.8,0.6-1.8,0.9-2.9,0.9h-7.1V154.9z"/>
		<polygon class="st0" points="146.4,150 135.7,160.7 135.7,150 130.9,150 130.9,177.8 135.7,177.8 135.7,167.5 138.5,164.7 
			147,177.8 152.8,177.8 142,161.2 153.2,150 		"/>
		<polygon class="st0" points="155.5,177.8 175.4,177.8 175.4,173 160.3,173 160.3,166.3 172.1,166.3 172.1,161.5 160.3,161.5 
			160.3,154.9 175.4,154.9 175.4,150 155.5,150 		"/>
		<polygon class="st0" points="178.9,154.9 187.4,154.9 187.4,177.8 192.3,177.8 192.3,154.9 200.8,154.9 200.8,150 178.9,150 		"/>
		<rect x="204.3" y="150" class="st0" width="4.8" height="27.8"/>
		<polygon class="st0" points="231.6,168.6 218.5,150.2 218.4,150 214,150 214,177.8 218.8,177.8 218.8,159.2 231.9,177.7 
			232,177.8 236.5,177.8 236.5,150 231.6,150 		"/>
		<path class="st0" d="M254.2,166.3h8.2v3.9c-1.9,2.3-4.4,3.4-7.4,3.4c-2.6,0-4.9-1-6.9-2.8c-1.9-1.9-2.8-4.3-2.8-6.9
			c0-2.6,1-4.9,2.8-6.9c1.9-1.9,4.2-2.8,6.9-2.8c1.5,0,3,0.4,4.3,1.1c1.4,0.7,2.6,1.8,3.6,3.1l0.2,0.3l4-2.8l-0.2-0.3
			c-1.4-2-3.2-3.5-5.3-4.6c-2.1-1.1-4.3-1.6-6.6-1.6c-4,0-7.4,1.4-10.3,4.3c-2.8,2.8-4.3,6.3-4.3,10.2s1.4,7.4,4.2,10.3
			c2.9,2.8,6.3,4.2,10.3,4.2c1.2,0,2.4-0.2,3.6-0.5c1.2-0.3,2.3-0.7,3.3-1.3c1-0.6,2-1.2,2.9-2.1c0.9-0.8,1.7-1.7,2.3-2.7l0.1-10.4
			h-13.1V166.3z"/>
		<rect x="288.9" y="150" class="st0" width="4.8" height="27.8"/>
		<polygon class="st0" points="316.2,168.6 303.1,150.2 303,150 298.5,150 298.5,177.8 303.4,177.8 303.4,159.2 316.5,177.7 
			316.6,177.8 321.1,177.8 321.1,150 316.2,150 		"/>
		<polygon class="st0" points="324.6,154.9 333.1,154.9 333.1,177.8 338,177.8 338,154.9 346.5,154.9 346.5,150 324.6,150 		"/>
		<polygon class="st0" points="350,177.8 369.9,177.8 369.9,173 354.8,173 354.8,166.3 366.6,166.3 366.6,161.5 354.8,161.5 
			354.8,154.9 369.9,154.9 369.9,150 350,150 		"/>
		<path class="st0" d="M387.6,166.3h8.2v3.9c-1.9,2.3-4.4,3.4-7.4,3.4c-2.6,0-4.9-1-6.9-2.8c-1.9-1.9-2.8-4.3-2.8-6.9
			c0-2.6,1-4.9,2.8-6.9c1.9-1.9,4.2-2.8,6.9-2.8c1.5,0,3,0.4,4.3,1.1c1.4,0.7,2.6,1.8,3.6,3.1l0.2,0.3l4-2.8l-0.2-0.3
			c-1.5-2-3.2-3.5-5.3-4.6c-2.1-1.1-4.3-1.6-6.6-1.6c-4,0-7.4,1.4-10.3,4.3c-2.8,2.8-4.3,6.3-4.3,10.2s1.4,7.4,4.2,10.3
			c2.9,2.8,6.3,4.2,10.3,4.2c1.2,0,2.4-0.2,3.6-0.5c1.2-0.3,2.3-0.7,3.3-1.3c1-0.6,2-1.2,2.9-2.1c0.9-0.8,1.7-1.7,2.3-2.7l0.1-10.4
			h-13.1V166.3z"/>
		<path class="st0" d="M443.8,150h-4.6l-9.9,27.3l-0.1,0.3l-6.6-10.1c-0.3-0.5-0.7-1-1-1.4c-0.2-0.2-0.3-0.4-0.5-0.5
			c1.1-0.5,2.2-1.3,3.1-2.3c1.2-1.5,1.9-3.2,1.9-5c0-2.3-0.9-4.3-2.8-6c-1.8-1.4-3.8-2.2-6.2-2.2h-11.9v27.8h4.8v-11.5h3.2
			c2,0,3.4,0.6,4.2,2l6.2,9.5h5.5h0.3h4.8l2.2-5.9h10.2l2.2,5.9h5.2l-10-27.5L443.8,150z M410,154.9h7.1c1.1,0,2,0.3,2.9,0.9
			c0.8,0.6,1.2,1.4,1.2,2.4c0,1-0.4,1.8-1.2,2.4c-0.8,0.6-1.8,0.9-2.9,0.9H410V154.9z M444.8,167.1h-6.7l3.3-9.2L444.8,167.1z"/>
		<polygon class="st0" points="461.6,173 461.6,150 456.8,150 456.8,177.8 473.4,177.8 473.4,173 		"/>
	</g>
	<g>
		<path class="st1" d="M63.8,111.7c-1.1-1.4-3.2-2.9-6.8-2.9c-5.3,0-11,4.5-11,12.8c0,6.8,4.5,11.8,10.4,11.8c2.8,0,5.2-1,6.8-2.8
			v0.9c0,4.9-2.3,7.5-6.8,7.5c-3.3,0-5.6-1.2-6.5-1.7l-0.6-0.4l-1.4,4.3l0.4,0.3c1.9,1.2,4.9,2,8,2c2.6,0,6.2-0.5,8.8-2.9
			c2.4-2.1,3.5-5.5,3.5-11v-13.4c0-2.8,0.1-4.6,0.2-6.3l0-0.6h-4.9L63.8,111.7z M63,117.2c0.1,0.4,0.2,0.9,0.2,1.7v4.1
			c0,0.7-0.1,1.5-0.3,2c-0.8,2.4-2.9,3.9-5.2,3.9c-4.6,0-6.2-4.1-6.2-7.7c0-4.9,2.5-8.1,6.3-8.1C60.7,113.2,62.4,115.3,63,117.2z"/>
		<path class="st1" d="M84.1,108.7c-2.5,0-4.7,1.3-6,3.5l-0.1-3h-4.9l0,0.6c0.1,2,0.2,4.2,0.2,7.2v16.5h5.3v-12.9
			c0-0.7,0.1-1.3,0.2-1.8c0.6-3,2.5-4.9,5-4.9c0.5,0,0.9,0,1.3,0.1l0.7,0.2V109l-0.5-0.1C85,108.8,84.6,108.7,84.1,108.7z"/>
		<path class="st1" d="M109.6,126.6v-17.4h-5.4V124c0,0.7-0.1,1.4-0.3,1.9c-0.7,1.6-2.3,3.4-5,3.4c-2,0-4.6-0.7-4.6-6.7v-13.4H89
			v14.1c0,9.7,6,10.7,8.6,10.7c3.7,0,6-1.8,7.2-3.3l0.2,2.8h4.9l0-0.6C109.7,131.2,109.6,129.2,109.6,126.6z"/>
		<path class="st1" d="M127.1,108.7c-3.2,0-5.9,1.2-7.8,3.5l-0.1-2.9h-5l0,0.6c0.1,2.3,0.2,4.6,0.2,7.5v25.6h5.3v-11.5
			c1.6,1.6,4,2.6,6.6,2.6c5.5,0,11.1-4,11.1-13C137.4,113.9,133.1,108.7,127.1,108.7z M132.1,121.2c0,5.1-2.5,8.3-6.4,8.3
			c-2.7,0-5-1.8-5.7-4.4c-0.1-0.5-0.2-1-0.2-1.6v-4c0-0.5,0.1-1.1,0.3-1.6c0.7-2.8,3.1-4.7,5.8-4.7
			C130.1,113.2,132.1,117.3,132.1,121.2z"/>
		<path class="st1" d="M153.1,108.7c-7.1,0-12,5.3-12,12.8c0,7.3,4.8,12.5,11.6,12.5c6,0,12.1-4,12.1-12.8
			C164.8,113.8,160,108.7,153.1,108.7z M152.9,129.7c-3.7,0-6.4-3.5-6.4-8.3c0-4.2,2-8.4,6.5-8.4c5,0,6.3,5.4,6.3,8.3
			C159.4,126.2,156.7,129.7,152.9,129.7z"/>
	</g>
	<g>
		<path class="st1" d="M186.4,70.3h-21V55.4h60.1v14.9h-21.3v63.3h-17.8V70.3z"/>
		<path class="st1" d="M279.7,100.6h-28.8v18.6h32.1v14.5h-49.9V55.4h48.3v14.5h-30.5v16.2h28.8V100.6z"/>
	</g>
	<polygon class="st2" points="367.6,55.5 358.1,55.5 338.2,101.6 338.1,101.3 337.9,101.6 318,55.5 308.5,55.5 290,133.6 
		307.9,133.6 317.1,91.5 333.8,127.5 338.1,127.5 342.4,127.5 359,91.5 368.2,133.6 386.1,133.6 	"/>
	<polygon class="st2" points="474.8,133.6 438.4,55.5 431.9,55.5 395.5,133.6 414.4,133.6 435.1,88.7 435.1,88.7 444.1,108.1 
		433.9,108.1 428.9,119.1 449.2,119.1 455.9,133.6 	"/>
</g>
</svg>
